<?xml version="1.0" encoding="utf-8"?>
<!-- Generator: Adobe Illustrator 23.0.3, SVG Export Plug-In . SVG Version: 6.00 Build 0)  -->
<svg version="1.1" id="Layer_1" xmlns="http://www.w3.org/2000/svg" xmlns:xlink="http://www.w3.org/1999/xlink" x="0px" y="0px"
	 viewBox="0 0 1434 288" style="enable-background:new 0 0 1434 288;" xml:space="preserve">
<style type="text/css">
	.st0{clip-path:url(#SVGID_2_);}
	.st1{fill:#31384C;}
	.st2{font-family:'BodoniMTCondensed-Bold';}
	.st3{font-size:174.2439px;}
	.st4{clip-path:url(#SVGID_2_);fill:#31384C;}
	.st5{clip-path:url(#SVGID_2_);fill:#265B93;}
	.st6{clip-path:url(#SVGID_2_);fill:#FFD684;}
</style>
<g>
	<defs>
		<rect id="SVGID_1_" width="1434" height="269.9"/>
	</defs>
	<clipPath id="SVGID_2_">
		<use xlink:href="#SVGID_1_"  style="overflow:visible;"/>
	</clipPath>
	<g class="st0">
		<text transform="matrix(1 0 0 1 410.6475 242.7058)" class="st1 st2 st3">PINNACLES</text>
	</g>
	<g class="st0">
		<text transform="matrix(1 0 0 1 1028.6904 242.7058)" class="st1 st2 st3">SUITES</text>
	</g>
	<path class="st4" d="M459.5,64.9c1.5-0.2,2.8,0.9,3.7,0.9c1.7-0.1,2.6-1.1,2.9-2.3c0.5-1.8,0.1-3-1.5-3.7c0,0-1-0.5-1-0.5l-4.1-1.3
		c-0.1,0-1.6-0.3-1.7-0.3c-6.2,0.9-12.8,11.8-19.9,24.7l-18.5,34.2c-7.7,12.1-15.6,18.6-23.6,19.4c-7,0.7-10.8-3.4-11.6-12.6
		c-0.7-7,1.3-15.1,5.9-24c3,0.7,6.6,0.9,10.9,0.5l0.7-0.1c1.6-0.2,2.8-0.4,3.6-0.8c1.2-0.5,1.4-1.3,1.4-1.8c-0.1-1-1.6-1.3-5.6-1.2
		l-6.5,0.4c-1.4-0.2-2.2-0.3-2.7-0.4c3.3-5.3,7-9.7,11-13.2c4.1-3.6,8.2-5.6,12.3-6c5.2-0.5,6,2,6.2,3.8c0.1,0.8,0,1.8-0.2,2.9
		c-0.7,4.9-3.6,10.2-8.5,15.8c-4.9,5.5-9.9,8.6-14.7,9c-3.3,0.3-4.6-0.1-4.6-0.6l0-2.6c0-0.3-0.2-0.5-0.5-0.6
		c-0.8-0.1-1.9,0-2.7,1.5c-0.6,1-0.8,2.2-0.7,3.5c0.2,2.6,1.7,5.5,7.1,5c6.3-0.6,12.8-5,19.5-13c6.6-8,9.7-15.3,9.1-21.6
		c-0.5-5.5-4.3-7.9-11.3-7.3c-5.4,0.5-10.7,2.7-15.7,6.6c-4.8,3.7-8.9,8.5-12.1,14.3c-2.8-2-4.3-4.8-4.7-8.7c-0.3-3,0.1-6.2,1.2-9.6
		c1.1-3.4,2-5.7,2.9-6.8c7.7-10.5,19.1-16.5,34.1-17.9c3.8-0.4,7.2-0.4,10.2-0.1c3,0.3,10.6,2.6,22.6,6.8
		c12.1,4.2,20.9,4.2,26.5,3.7c3.6-0.3,6.6-1.5,8.8-3.3c2.3-1.9,3.4-3.9,3.2-5.8c-0.2-1.8-0.9-3.4-2.1-4.7c-1.6-1.8-2.3-2-2.8-1.9
		c-0.4,0-0.7,0.2-0.9,0.4c-0.1,0.2-0.2,0.4-0.2,0.6c0,0.3,0.2,0.7,1.1,1.8c0.9,0.7,1.4,1.5,1.5,2.4c0.1,1-0.2,1.9-0.9,2.8
		c-1.4,1.9-3.7,3.1-6.9,3.4c-5,0.5-13.3,0.5-25.3-3.7c-12.3-4.3-19-6.5-20.6-6.7c-6.9-1.1-13.4-1.3-19.3-0.7
		c-12.9,1.2-23.2,5.9-30.6,13.8c-6.7,7.1-9.7,14.9-8.9,23.2c0.6,6.7,3.8,11.7,9.4,14.7c-3.8,8.1-5.4,16.2-4.6,24.1
		c0.6,6.1,2.2,10.8,4.8,13.8c2.2,2.6,5.7,3.9,10.4,3.9c0.9,0,1.8,0,2.7-0.1c8.7-0.8,17.4-7.3,25.9-19.3l19-32.7
		C449.2,75.5,455.5,65.3,459.5,64.9"/>
	<path class="st4" d="M525.3,93.6c-0.3-0.2-0.6-0.3-1-0.3c-0.7,0.1-1.3,0.6-2,1.7c-2.7,4.3-6.2,8.5-10.3,12.5
		c-5.2,5.3-9.6,8.2-13.1,8.6c-3.3,0.3-5-1.2-5.4-4.7c-0.2-1.9,0.1-3.9,0.8-5.7c0.4,0,0.8,0,1.3,0c4-0.4,9-2.8,14.9-7.2
		c6-4.4,8.8-8.9,8.4-13.2c-0.1-1.5-0.9-2.7-2.2-3.6c-1.3-0.9-2.8-1.3-4.6-1.1c-5.3,0.5-10.9,4.5-16.8,12c-4,5.1-6.5,9.7-7.6,13.8
		c-4.6,5.6-8.3,8.7-11.1,9c-0.6,0.1-0.8-0.2-1-0.3c-0.3-0.3-0.4-0.8-0.5-1.5c-0.3-3.1,1.8-8.3,6.1-15.5c6.7-11,6.7-11.2,6.7-11.3
		c0-0.2,0-0.4,0-0.8c-0.1-1.1-0.6-1.9-1.3-2.4c-0.7-0.5-1.8-0.7-3.1-0.5c-2.5,0.2-7.1,3.2-14,9.1c-5.1,4.3-9,7.7-11.7,10
		c1.5-3.6,5-9.7,10.5-18.3c8.8-14,9.9-17,10-18.1c0-0.1,0-0.1,0-0.2c-0.8-2.2-1.9-2.6-2.8-2.5c-0.2,0-0.5,0.1-0.6,0.2
		c-3.6,1.6-9.1,9.7-16.6,24.8c-3.1,6.2-7.7,16.1-13.6,29.5c-0.8,1.9-1.1,3.1-1,3.9c0.1,1,0.7,2.1,3.1,2.1c0.3,0,0.6,0,0.9,0
		c0.5-0.1,1.4-0.1,7-10.5c6.2-9.1,13.5-16.5,21.7-22c-2.1,4.2-3.9,7.9-5.3,11.1c-1.7,3.8-2.5,7.2-2.2,10.1c0.6,6.8,4.6,7.8,7.8,7.5
		c1.8-0.2,4.7-2.5,9.1-7c0.5-0.5,0.9-1,1.4-1.5c0,0.2,0,0.3,0,0.5c0.4,4.2,3.2,6.8,8.2,7.8c0.7,0.2,1.5,0.2,2.4,0.1
		c4-0.4,8.7-2.9,14-7.6c5.2-4.6,9.6-9.8,13.1-15.4c0.6-1,0.8-1.7,0.8-2.3C525.7,94,525.5,93.7,525.3,93.6 M496.4,101.9
		c2.1-4.1,5.2-8.2,9.2-12.2v0c3.1-3.1,5.5-4.7,7.2-4.9c0.8-0.1,2.3-0.1,2.3,0.5c0,0.2,0,0.5-0.1,0.8c-0.8,3.5-3.4,6.9-7.6,10.3
		c-4.3,3.3-7.8,5.2-10.5,5.4C496.7,101.9,496.5,101.9,496.4,101.9"/>
	<path class="st5" d="M192.7,26.5c-80.9,0-144.8,65.9-144.8,146.8c0,20.8,5,46.4,16.3,64.1l9.6-17.4l22.7-37.6l5.5,3.9l12.4-19.9
		l5.8,3.6l19.8-32.3l12.1,10.8l10.3-10.8v-11l3.4-3.1c-0.3-0.2-18.6-0.3-15.3-11.4c4.1-13.8,26.5-15.6,13.6-20.5
		c-15.6-6-24.6-0.4-37.2-4c-12.6-3.6-18-14.1-1.3-29.3c0,0-16,9-26.4,20.2c-32.7,31.4-41.3,75.4-42.3,91.9
		c-0.4,7.6-0.3,14.9,0.1,21.7c-1.2-6.4-2-12.7-2-18.8c0-77.1,60.7-139.8,137.9-139.8c77.1,0,141.8,62.7,141.8,139.8c0,0,0,0.1,0,0.1
		c-2.2-27-20.3-101.4-96.4-123.2c-4.8,2.1-9.5,4.6-13.6,7.5c-14,10.2,11.7,18,29.8,23.2c13.5,3.8,0.7,15.5-9.4,24.3
		c-9.3,8.1-12.2,13.6-8.9,21.3l2.6-1.6l-0.2,10c0,0,23.7-24.3,27.7-26.5c0.3,9,3.5,72.1,49,128.3c0,0,0,0,0,0l6.6,9
		c14.2-26,19.7-51.8,19.7-72.5C341.5,92.3,273.7,26.5,192.7,26.5"/>
	<path class="st5" d="M231.4,105.9c12.5-12.8,19.5-22.2-4.4-25.6c-23.9-3.3-48-9.8-45.6-20.5c1.7-7.4,19.2-15.2,22.8-18
		c-1.5-0.1-7,0-8.5,0c-17.8-0.3-21.1,1.5-27.7,3.5c-11.4,4-30.6,12.2-24.2,20.7c8.7,11.6,59.8,13.8,48.2,28.7
		c-5.1,6.5-17.7,5.5-25.5,13.9c-8.3,9,1.5,12.8,1.5,12.8l3.4-2.3v9.4c0,0,39.5-41.4,41.6-42.7c-1.1,14.3,1.8,53.2,13.7,62.9
		l1.6-17.1l6.4-4.2C228.9,124.2,221.5,116.1,231.4,105.9"/>
	<polygon class="st6" points="266.1,196 261,194.7 261,205.3 266.1,206.4 	"/>
	<polygon class="st6" points="251.9,203.3 259,204.8 259,194.2 251.9,192.4 	"/>
	<path class="st6" d="M206,165.2v14l7.5,1.9c0,0,0.2-7.3-2.4-11.8C209.3,166.3,206,165.2,206,165.2"/>
	<path class="st6" d="M197.8,165.2c-4.5,3.7-4.1,10.9-4.1,10.9l10.3,2.6v-14.2C204,164.5,200,163.4,197.8,165.2"/>
	<polygon class="st6" points="206,195.5 213.5,196.9 213.5,183.2 206,181.3 	"/>
	<polygon class="st6" points="193.7,193.2 204,195.2 204,180.8 193.7,178.2 	"/>
	<path class="st6" d="M261,181v11.7l5.1,1.3c0,0,0-7.6-1.6-10.4C263.2,181.4,261,181,261,181"/>
	<path class="st6" d="M253.9,181.6c-1.8,2.2-2,8.7-2,8.7l7.1,1.8v-11.5C259,180.6,255.7,179.5,253.9,181.6"/>
	<path class="st4" d="M283.9,201.7c-12-20.4-17-53.8-21.8-76.4c-15.5,17.2-27.9,27.7-31.7,34.2c-0.5,0.8,4,21.7,8.8,34.1
		c-19.8-21.1-27.9-67-31.6-84.9c-16.5,16.1-46.6,46.2-49,49.3c-2.3,3,5.7,15.6,8.1,21.7c-18-13.6-23.9-27.7-23.9-27.7
		s-5.3,8.4-16.6,22.4c1.1,6.1,9,14.8,13.4,20.5c-13.7-2.6-21.6-18.7-21.6-18.7L107,189.9l4,14.4c-7.4-3.3-11.8-10.2-11.8-10.2
		l-11.4,22.5c-7.7,11.8-13.2,22.9-17.2,33H315C306.7,235.7,294.1,219,283.9,201.7 M193.7,176.1c0,0-0.4-7.2,4.1-10.9
		c2.2-1.8,6.2-0.7,6.2-0.7v14.2L193.7,176.1z M204,180.8v14.4l-10.3-1.9v-15.1L204,180.8z M206,195.5v-14.3l7.5,1.9v13.8L206,195.5z
		 M213.5,181.1l-7.5-1.9v-14c0,0,3.4,1.1,5.1,4.1C213.7,173.8,213.5,181.1,213.5,181.1 M259,194.2v10.7l-7.1-1.6v-10.9L259,194.2z
		 M251.9,190.3c0,0,0.2-6.5,2-8.7c1.8-2.2,5.2-1,5.2-1v11.5L251.9,190.3z M261,205.3v-10.6l5.1,1.3v10.4L261,205.3z M261,192.6V181
		c0,0,2.2,0.4,3.5,2.6c1.6,2.8,1.6,10.4,1.6,10.4L261,192.6z"/>
</g>
</svg>
