<?xml version="1.0" encoding="utf-8"?>
<!-- Generator: Adobe Illustrator 23.0.3, SVG Export Plug-In . SVG Version: 6.00 Build 0)  -->
<svg version="1.1" id="Layer_1" xmlns="http://www.w3.org/2000/svg" xmlns:xlink="http://www.w3.org/1999/xlink" x="0px" y="0px"
	 viewBox="0 0 1028.4 198.8" style="enable-background:new 0 0 1028.4 198.8;" xml:space="preserve">
<style type="text/css">
	.st0{enable-background:new    ;}
	.st1{fill:#31384C;}
</style>
<g>
	<g class="st0">
		<path class="st1" d="M38.2,86.7h34.1c11.8,0,20.5,3,26.2,8.8c5.7,5.9,8.5,12.5,8.5,19.9c0,9.4-3,16.6-9,21.9
			c-6,5.2-14.4,7.8-25.2,7.8h-5v49.6h7.8v2.8H38.1v-2.8h8.3V89.7h-8.2V86.7z M67.8,89.7V142H73c3.1,0,5.6-1,7.7-3.1
			c2.1-2.1,3.1-7.3,3.1-15.7v-13.4c0-6.2-0.5-10.7-1.4-13.7c-1-2.9-2.3-4.8-4.1-5.4c-1.8-0.7-4.6-1-8.4-1H67.8z"/>
		<path class="st1" d="M114,86.7h36.4v3h-7.7v104.9h7.8v3h-36.4v-3h7.1V89.7H114V86.7z"/>
		<path class="st1" d="M153.4,86.7h30.9l29.5,91h0.3V97.1c0-5-2.4-7.5-7.3-7.5h-3.1v-3h23.2v3h-3.1c-3.9,0-5.8,1.5-5.8,4.6v103.3
			h-19.1L167,101h-0.3v83.6c0,6.6,2.2,10,6.6,10h3.8v3h-21.8v-3c2.8,0,4.8-0.5,5.9-1.6c1.1-1,1.6-3,1.6-5.9V89.7h-9.4V86.7z"/>
		<path class="st1" d="M231.5,86.7h30.9l29.5,91h0.3V97.1c0-5-2.4-7.5-7.3-7.5h-3.1v-3h23.2v3h-3.1c-3.9,0-5.8,1.5-5.8,4.6v103.3
			h-19.1L245.1,101h-0.3v83.6c0,6.6,2.2,10,6.6,10h3.8v3h-21.8v-3c2.8,0,4.8-0.5,5.9-1.6c1.1-1,1.6-3,1.6-5.9V89.7h-9.4V86.7z"/>
		<path class="st1" d="M343.3,85.1h6.2l28.6,109.6h7.1v2.8h-35.7v-3h6.9l-7.4-28.1H328l-4.3,19.4c-0.2,0.9-0.3,1.7-0.3,2.4
			c0,4.3,2.1,6.5,6.3,6.5h3v2.8h-22.7v-3h2.8c3.9,0,6.4-2.6,7.5-7.7L343.3,85.1z M337.7,123.3l-9,40.2h19.6L338,123.3H337.7z"/>
		<path class="st1" d="M439.8,197.5l-5.3-5.2c-4,4.3-8.7,6.5-14.3,6.5c-7.3,0-13.9-4.4-19.8-13.1c-6-8.7-8.9-23.7-8.9-45
			c0-16.4,2.8-29.7,8.3-40c5.5-10.2,12.5-15.3,21.1-15.3c3.2,0,5.6,0.5,7.4,1.5c1.8,1,3.6,2.6,5.6,4.7c1.7-1.2,3.3-2.8,4.7-4.9h3.1
			v28.4h-3.1c-3.8-17.7-9.2-26.5-16.3-26.5c-4.3,0-6.5,4.6-6.5,13.8V180c0,4.9,0.7,8.7,2.1,11.4c1.4,2.7,3.3,4.1,5.7,4.1
			c3.9,0,7.2-2.5,10.2-7.4c2.9-4.9,5.1-12.1,6.4-21.3h2.8v30.8H439.8z"/>
		<path class="st1" d="M447.8,86.7h36.9v3h-7.8v105.1h3.1c5.2,0,9.6-2.4,13.1-7.3c3.5-4.9,5.6-11.8,6.4-20.7h3l-0.5,30.8h-54.4v-2.8
			h7.7V89.7h-7.5V86.7z"/>
		<path class="st1" d="M507.5,86.7H564v26.7h-2.9c-2.3-15.8-8.4-23.7-18.1-23.7h-6.5v47.6h3.8c3.9,0,6.9-1.1,9.1-3.4
			c2.2-2.2,3.4-5.3,3.4-9.1v-3.1h3v35.7h-3v-2.8c0-9.4-3.9-14.1-11.8-14.1h-4.5v54.2h5.5c10.2,0,17-9.2,20.2-27.7h2.8v30.6h-57.5v-3
			h7.5V89.7h-7.7V86.7z"/>
		<path class="st1" d="M572.5,163h3c1.7,10.5,4.9,18.6,9.6,24.4s10,8.7,16,8.7c4.3,0,7.8-1.7,10.6-5.1c2.8-3.4,4.2-7.7,4.2-12.9
			c0-8.5-4.5-16-13.5-22.3c-2.8-1.5-6.5-3.9-11.1-7c-4.6-3.2-8.2-6-10.6-8.7c-2.4-2.6-4.4-6.1-6.1-10.4c-1.6-4.3-2.5-8.5-2.5-12.7
			c0-9.1,2.4-16.7,7.3-22.6c4.8-5.9,11-8.9,18.3-8.9c4.4,0,8.4,1,12.1,2.9c3.7,1.9,5.9,2.9,6.7,2.9c1,0,1.9-0.4,2.7-1.2
			c0.8-0.8,1.1-1.7,1.1-2.7v-0.6h2.8v30.4h-3c-1.2-8.3-3.7-15.1-7.7-20.5c-3.9-5.3-8.3-8-13.2-8c-4.1,0-7.4,1.2-9.8,3.7
			c-2.4,2.5-3.6,5.9-3.6,10.2c0,5.3,1.7,9.9,5.2,13.9c3.5,4,9.6,8.5,18.3,13.4c13.9,7.8,20.8,19.3,20.8,34.3
			c0,9.9-2.8,18.2-8.5,24.8c-5.6,6.6-12.6,9.9-21,9.9c-4.9,0-9.2-1.2-12.9-3.7c-3.7-2.5-6.1-3.7-7.4-3.7c-3,0-4.6,2.1-4.8,6.2h-3.3
			V163z"/>
	</g>
</g>
<g>
	<g class="st0">
		<path class="st1" d="M660.3,163h3c1.7,10.5,4.9,18.6,9.6,24.4c4.7,5.8,10,8.7,16,8.7c4.3,0,7.8-1.7,10.6-5.1
			c2.8-3.4,4.2-7.7,4.2-12.9c0-8.5-4.5-16-13.5-22.3c-2.8-1.5-6.5-3.9-11.1-7c-4.6-3.2-8.2-6-10.6-8.7c-2.4-2.6-4.4-6.1-6.1-10.4
			c-1.6-4.3-2.5-8.5-2.5-12.7c0-9.1,2.4-16.7,7.3-22.6c4.8-5.9,11-8.9,18.3-8.9c4.4,0,8.4,1,12.1,2.9c3.7,1.9,5.9,2.9,6.7,2.9
			c1,0,1.9-0.4,2.7-1.2c0.8-0.8,1.1-1.7,1.1-2.7v-0.6h2.8v30.4h-3c-1.2-8.3-3.7-15.1-7.7-20.5c-3.9-5.3-8.3-8-13.2-8
			c-4.1,0-7.4,1.2-9.8,3.7c-2.4,2.5-3.6,5.9-3.6,10.2c0,5.3,1.7,9.9,5.2,13.9c3.5,4,9.6,8.5,18.3,13.4c13.9,7.8,20.8,19.3,20.8,34.3
			c0,9.9-2.8,18.2-8.5,24.8c-5.6,6.6-12.6,9.9-21,9.9c-4.9,0-9.2-1.2-12.9-3.7c-3.7-2.5-6.1-3.7-7.4-3.7c-2.9,0-4.6,2.1-4.8,6.2
			h-3.3V163z"/>
		<path class="st1" d="M723.3,86.7h37.3v2.8h-8V184c0,3.3,0.9,6,2.7,8c1.8,2.1,4.1,3.1,7,3.1c4.7,0,8.4-1.6,11.1-4.9
			c2.7-3.3,4-7.8,4-13.8V95.3c0-1.3-0.6-2.6-1.7-3.9c-1.1-1.3-2.3-1.9-3.4-1.9h-3.7l0.2-2.8h19.4v2.8h-2c-1.4,0-2.8,0.6-4,1.9
			c-1.3,1.2-1.9,2.6-1.9,4.1v81.4c0,7.6-2,13.1-5.9,16.6c-3.9,3.5-10,5.3-18.3,5.3c-16.7,0-25.1-8.6-25.1-25.8V89.5h-7.8L723.3,86.7
			z"/>
		<path class="st1" d="M793.7,86.7h36.4v3h-7.7v104.9h7.8v3h-36.4v-3h7.1V89.7h-7.3V86.7z"/>
		<path class="st1" d="M835.2,86.7H900V116h-3c-1.7-17.6-7.9-26.4-18.6-26.4v105.1h8.2v2.8H849l0.2-3h7.7V89.7
			c-5.7,0.3-10,3.1-13.1,8.3c-3.1,5.2-4.9,11.3-5.5,18.3h-3V86.7z"/>
		<path class="st1" d="M905.6,86.7h56.6v26.7h-2.9c-2.3-15.8-8.4-23.7-18.1-23.7h-6.5v47.6h3.8c3.9,0,6.9-1.1,9.1-3.4
			c2.2-2.2,3.4-5.3,3.4-9.1v-3.1h3v35.7h-3v-2.8c0-9.4-3.9-14.1-11.8-14.1h-4.5v54.2h5.5c10.2,0,17-9.2,20.2-27.7h2.8v30.6h-57.5v-3
			h7.5V89.7h-7.7V86.7z"/>
		<path class="st1" d="M970.6,163h3c1.7,10.5,4.9,18.6,9.6,24.4s10,8.7,16,8.7c4.3,0,7.8-1.7,10.6-5.1c2.8-3.4,4.2-7.7,4.2-12.9
			c0-8.5-4.5-16-13.5-22.3c-2.8-1.5-6.5-3.9-11.1-7c-4.6-3.2-8.2-6-10.6-8.7c-2.4-2.6-4.4-6.1-6.1-10.4c-1.6-4.3-2.5-8.5-2.5-12.7
			c0-9.1,2.4-16.7,7.3-22.6c4.8-5.9,11-8.9,18.3-8.9c4.4,0,8.4,1,12.1,2.9c3.7,1.9,5.9,2.9,6.7,2.9c1,0,1.9-0.4,2.7-1.2
			c0.8-0.8,1.1-1.7,1.1-2.7v-0.6h2.8v30.4h-3c-1.2-8.3-3.7-15.1-7.7-20.5c-3.9-5.3-8.3-8-13.2-8c-4.1,0-7.4,1.2-9.8,3.7
			c-2.4,2.5-3.6,5.9-3.6,10.2c0,5.3,1.7,9.9,5.2,13.9c3.5,4,9.6,8.5,18.3,13.4c13.9,7.8,20.8,19.3,20.8,34.3
			c0,9.9-2.8,18.2-8.5,24.8c-5.6,6.6-12.6,9.9-21,9.9c-4.9,0-9.2-1.2-12.9-3.7c-3.7-2.5-6.1-3.7-7.4-3.7c-3,0-4.6,2.1-4.8,6.2h-3.3
			V163z"/>
	</g>
</g>
<path class="st1" d="M84.6,19.7c1.5-0.2,2.8,0.9,3.7,0.9c1.7-0.1,2.6-1.1,2.9-2.3c0.5-1.8,0.1-3-1.5-3.7l-1-0.5l-4.1-1.3
	c-0.1,0-1.6-0.3-1.7-0.3C76.7,13.4,70.1,24.3,63,37.2L44.5,71.4C36.8,83.5,28.9,90,20.9,90.8c-7,0.7-10.8-3.4-11.6-12.6
	c-0.7-7,1.3-15.1,5.9-24c3,0.7,6.6,0.9,10.9,0.5l0.7-0.1c1.6-0.2,2.8-0.4,3.6-0.8c1.2-0.5,1.4-1.3,1.4-1.8c-0.1-1-1.6-1.3-5.6-1.2
	l-6.5,0.4c-1.4-0.2-2.2-0.3-2.7-0.4c3.3-5.3,7-9.7,11-13.2c4.1-3.6,8.2-5.6,12.3-6c5.2-0.5,6,2,6.2,3.8c0.1,0.8,0,1.8-0.2,2.9
	c-0.7,4.9-3.6,10.2-8.5,15.8c-4.9,5.5-9.9,8.6-14.7,9c-3.3,0.3-4.6-0.1-4.6-0.6v-2.6c0-0.3-0.2-0.5-0.5-0.6c-0.8-0.1-1.9,0-2.7,1.5
	c-0.6,1-0.8,2.2-0.7,3.5c0.2,2.6,1.7,5.5,7.1,5c6.3-0.6,12.8-5,19.5-13c6.6-8,9.7-15.3,9.1-21.6c-0.5-5.5-4.3-7.9-11.3-7.3
	c-5.4,0.5-10.7,2.7-15.7,6.6c-4.8,3.7-8.9,8.5-12.1,14.3c-2.8-2-4.3-4.8-4.7-8.7c-0.3-3,0.1-6.2,1.2-9.6s2-5.7,2.9-6.8
	C18.3,12.7,29.7,6.7,44.7,5.3c3.8-0.4,7.2-0.4,10.2-0.1c3,0.3,10.6,2.6,22.6,6.8c12.1,4.2,20.9,4.2,26.5,3.7
	c3.6-0.3,6.6-1.5,8.8-3.3c2.3-1.9,3.4-3.9,3.2-5.8c-0.2-1.8-0.9-3.4-2.1-4.7c-1.6-1.8-2.3-2-2.8-1.9c-0.4,0-0.7,0.2-0.9,0.4
	C110.1,0.6,110,0.8,110,1c0,0.3,0.2,0.7,1.1,1.8c0.9,0.7,1.4,1.5,1.5,2.4c0.1,1-0.2,1.9-0.9,2.8c-1.4,1.9-3.7,3.1-6.9,3.4
	c-5,0.5-13.3,0.5-25.3-3.7C67.2,3.4,60.5,1.2,58.9,1C52-0.1,45.5-0.3,39.6,0.3C26.7,1.5,16.4,6.2,9,14.1C2.3,21.2-0.7,29,0.1,37.3
	C0.7,44,3.9,49,9.5,52c-3.8,8.1-5.4,16.2-4.6,24.1c0.6,6.1,2.2,10.8,4.8,13.8c2.2,2.6,5.7,3.9,10.4,3.9c0.9,0,1.8,0,2.7-0.1
	c8.7-0.8,17.4-7.3,25.9-19.3l19-32.7C74.3,30.3,80.6,20.1,84.6,19.7"/>
<path class="st1" d="M150.4,48.4c-0.3-0.2-0.6-0.3-1-0.3c-0.7,0.1-1.3,0.6-2,1.7c-2.7,4.3-6.2,8.5-10.3,12.5
	c-5.2,5.3-9.6,8.2-13.1,8.6c-3.3,0.3-5-1.2-5.4-4.7c-0.2-1.9,0.1-3.9,0.8-5.7c0.4,0,0.8,0,1.3,0c4-0.4,9-2.8,14.9-7.2
	c6-4.4,8.8-8.9,8.4-13.2c-0.1-1.5-0.9-2.7-2.2-3.6s-2.8-1.3-4.6-1.1c-5.3,0.5-10.9,4.5-16.8,12c-4,5.1-6.5,9.7-7.6,13.8
	c-4.6,5.6-8.3,8.7-11.1,9c-0.6,0.1-0.8-0.2-1-0.3c-0.3-0.3-0.4-0.8-0.5-1.5c-0.3-3.1,1.8-8.3,6.1-15.5c6.7-11,6.7-11.2,6.7-11.3
	c0-0.2,0-0.4,0-0.8c-0.1-1.1-0.6-1.9-1.3-2.4c-0.7-0.5-1.8-0.7-3.1-0.5c-2.5,0.2-7.1,3.2-14,9.1c-5.1,4.3-9,7.7-11.7,10
	c1.5-3.6,5-9.7,10.5-18.3c8.8-14,9.9-17,10-18.1c0-0.1,0-0.1,0-0.2c-0.8-2.2-1.9-2.6-2.8-2.5c-0.2,0-0.5,0.1-0.6,0.2
	c-3.6,1.6-9.1,9.7-16.6,24.8c-3.1,6.2-7.7,16.1-13.6,29.5c-0.8,1.9-1.1,3.1-1,3.9c0.1,1,0.7,2.1,3.1,2.1c0.3,0,0.6,0,0.9,0
	c0.5-0.1,1.4-0.1,7-10.5c6.2-9.1,13.5-16.5,21.7-22c-2.1,4.2-3.9,7.9-5.3,11.1c-1.7,3.8-2.5,7.2-2.2,10.1c0.6,6.8,4.6,7.8,7.8,7.5
	c1.8-0.2,4.7-2.5,9.1-7c0.5-0.5,0.9-1,1.4-1.5c0,0.2,0,0.3,0,0.5c0.4,4.2,3.2,6.8,8.2,7.8c0.7,0.2,1.5,0.2,2.4,0.1
	c4-0.4,8.7-2.9,14-7.6c5.2-4.6,9.6-9.8,13.1-15.4c0.6-1,0.8-1.7,0.8-2.3C150.8,48.8,150.6,48.5,150.4,48.4 M121.5,56.7
	c2.1-4.1,5.2-8.2,9.2-12.2l0,0c3.1-3.1,5.5-4.7,7.2-4.9c0.8-0.1,2.3-0.1,2.3,0.5c0,0.2,0,0.5-0.1,0.8c-0.8,3.5-3.4,6.9-7.6,10.3
	c-4.3,3.3-7.8,5.2-10.5,5.4C121.8,56.7,121.6,56.7,121.5,56.7"/>
</svg>
