<svg id="watermark" xmlns="http://www.w3.org/2000/svg" viewBox="0 0 219.914 219.914"><title>Sandhill Properties watermark-logo</title><g id="group" style="opacity:0.25"><path id="face" d="M141.312,42.3c-10.828-1.02-20.044,2.251-26.65,11.146a32.978,32.978,0,0,1-6.059,6.193,60.761,60.761,0,0,1-11.77,6.976c-1.173.56-2.355,1.108-3.541,1.653C78,75.3,62.667,82.252,47.393,89.329A18.1,18.1,0,0,0,41.6,92.991c-.956,2.181,3.389,1.227,4.831.908,10.361-2.288,20.695-4.693,31.044-7.035,18.746-4.244,37.632-6.287,56.762-4.421,1.637.16,3.274.338,4.914.556,1,.133,2.022.159,3.034.236,2.069-.625-8.307-3.08-12.573-3.569-2.245-.257-4.508-.34-6.778-.377-.158,0-.316-.011-.475-.013-2.672-.035-5.353-.006-8.022-.073a10.7,10.7,0,0,1-3.336-.26c-.93-.344-2.183-1.187-2.3-1.964a3.2,3.2,0,0,1,1.6-2.546c3.138-1.461,6.473-2.5,9.619-3.946,2.1-.967,3.989-2.4,6.016-3.549a45.53,45.53,0,0,1,5.289-2.72c1.622-.657,3.071-1.627,2.1-3.3-.848-1.457-2.5-3.08-4.023-3.342-1.688-.291-2.294,1.46-1.841,3.327.181.744.573,2.085-.634,2.516a2.908,2.908,0,0,1-3.561-1.165A4.834,4.834,0,0,1,125,56a22.962,22.962,0,0,1,6.2-2.41c3.71-.931,7.329-1.714,9.467-5.361.109-.186.233-.345.334-.547.525-1.045,2.261-1.7,3.572-2.081,2.217-.642,8.3-.4,6.869-1.568C148.06,43.5,144.712,42.618,141.312,42.3ZM96.141,73.109,88.97,75.053a1,1,0,0,1-1.227-.7.61.61,0,0,1,.417-.751L95.424,71.5a1,1,0,0,1,1.24.684A.748.748,0,0,1,96.141,73.109Z" style="fill:#fff"/><path id="outer" d="M109.957,0A109.96,109.96,0,0,0,90.039,218.1c2.928.889,16.3,1.814,19.918,1.814A109.957,109.957,0,0,0,109.957,0ZM179.41,179.41a98.209,98.209,0,0,1-26.47,18.87c-2.476,1.206-4.989,2.334-7.557,3.325a59.157,59.157,0,0,1-1.83-14.212c-.1-4.608.148-9.326.489-14.058.243-3.51,1.4-9.13,1.859-12.534.289-2.15.3-3.422-.381-2.7-2.676,4.13-6.447,15.179-6.552,15.554a58.559,58.559,0,0,0-.406,30.3,97.521,97.521,0,0,1-9.52,2.381,22.725,22.725,0,0,1-1.582-4.958c-.29-2.307-.258-4.689-.326-7.008-.281-9.6-.13-19.2,2.9-28.371,2.942-13.977,27.048-40.091,36.592-58.905a128.579,128.579,0,0,0,8.112-22.586,38.089,38.089,0,0,0,.887-6.984c.312-9.978-3.718-18.237-9.975-25.463-1.524-1.76-5.9-6.766-5.259-4.6,1.65,2.917,3.365,5.788,4.937,8.762a59.85,59.85,0,0,1,3.525,7.862,30.048,30.048,0,0,1,1.124,18.309,86.588,86.588,0,0,1-8.147,19.076c-10.551,19.078-24.352,37.278-35.322,56.069-.794,1.359-1.507,2.739-2.17,4.133-8.244,14.159-14.486,30.224-11.428,46.461-.983.029-1.967.048-2.954.048a99.575,99.575,0,0,1-12.142-.758,18.117,18.117,0,0,1-3.534-.432,48.915,48.915,0,0,1-5.652-1.14A98.231,98.231,0,0,1,40.505,40.505a98.222,98.222,0,0,1,166.419,53.8,99.45,99.45,0,0,1,1.254,15.651A97.581,97.581,0,0,1,179.41,179.41Z" style="fill:#fff"/><path id="neck" d="M133.478,101.876c-1.956,19.939-9.753,25.885-23.521,37.277-18.575,15.369-24.639,46-22.917,55.491.978,5.391,2.323,4.169,2.323-2.433,1.873-13.406,5.473-22.821,9.9-30.05,6.882-11.228,15.773-17.165,23.349-24.475,5.659-5.461,9.1-13.069,11.027-19.9,2.185-7.74,2.437-14.488,1.791-16.006C134.219,98.917,133.478,101.876,133.478,101.876Z" style="fill:#fff"/></g></svg>